0
SECTION
2
HEADER
9
$INSUNITS
70
4
9
$ACADVER
1
AC1014
9
$HANDSEED
5
FFFF
0
ENDSEC
0
SECTION
2
TABLES
0
TABLE
2
VPORT
5
8
100
AcDbSymbolTable
0
ENDTAB
0
TABLE
2
LTYPE
5
5
100
AcDbSymbolTable
0
LTYPE
5
14
100
AcDbSymbolTableRecord
100
AcDbLinetypeTableRecord
2
BYBLOCK
70
0
0
LTYPE
5
15
100
AcDbSymbolTableRecord
100
AcDbLinetypeTableRecord
2
BYLAYER
70
0
0
LTYPE
5
16
100
AcDbSymbolTableRecord
100
AcDbLinetypeTableRecord
2
DASHED
70
0
3
Dashed __ __ __ __ __ __ __ __ __ __ __ __ __ _
72
65
73
2
40
0.75
49
0.5
74
0
49
-0.25
74
0
0
ENDTAB
0
TABLE
2
LAYER
5
2
100
AcDbSymbolTable
70
3
0
LAYER
5
50
100
AcDbSymbolTableRecord
100
AcDbLayerTableRecord
2
1
70
0
62
7
6
DASHED
0
LAYER
5
51
100
AcDbSymbolTableRecord
100
AcDbLayerTableRecord
2
0
70
0
62
7
6
CONTINUOUS
0
ENDTAB
0
TABLE
2
STYLE
5
3
100
AcDbSymbolTable
70
1
0
STYLE
5
11
100
AcDbSymbolTableRecord
100
AcDbTextStyleTableRecord
2
STANDARD
70
0
0
ENDTAB
0
TABLE
2
VIEW
5
6
100
AcDbSymbolTable
70
0
0
ENDTAB
0
TABLE
2
UCS
5
7
100
AcDbSymbolTable
70
0
0
ENDTAB
0
TABLE
2
APPID
5
9
100
AcDbSymbolTable
70
2
0
APPID
5
12
100
AcDbSymbolTableRecord
100
AcDbRegAppTableRecord
2
ACAD
70
0
0
ENDTAB
0
TABLE
2
DIMSTYLE
5
A
100
AcDbSymbolTable
70
1
0
ENDTAB
0
TABLE
2
BLOCK_RECORD
5
1
100
AcDbSymbolTable
70
1
0
BLOCK_RECORD
5
1F
100
AcDbSymbolTableRecord
100
AcDbBlockTableRecord
2
*MODEL_SPACE
0
BLOCK_RECORD
5
1B
100
AcDbSymbolTableRecord
100
AcDbBlockTableRecord
2
*PAPER_SPACE
0
ENDTAB
0
ENDSEC
0
SECTION
2
BLOCKS
0
BLOCK
5
20
100
AcDbEntity
100
AcDbBlockBegin
2
*MODEL_SPACE
0
ENDBLK
5
21
100
AcDbEntity
100
AcDbBlockEnd
0
BLOCK
5
1C
100
AcDbEntity
100
AcDbBlockBegin
2
*PAPER_SPACE
0
ENDBLK
5
1D
100
AcDbEntity
100
AcDbBlockEnd
0
ENDSEC
0
SECTION
2
ENTITIES
0
LWPOLYLINE
5
100
100
AcDbEntity
8
0
100
AcDbPolyline
90
4
70
1
43
0.0
10
11.864890360584813
20
-31.026315789473674
42
0.74920612261889463
10
10.246950765959607
20
-25.499999999999989
10
-10.246950765959607
20
-25.499999999999989
42
0.7492061226188953
10
-11.864890360584816
20
-31.026315789473685
42
0.29277002188456036
0
CIRCLE
5
101
100
AcDbEntity
8
0
100
AcDbCircle
10
0
20
0
30
0
40
13.5
210
0
220
-0
230
1
0
LWPOLYLINE
5
102
100
AcDbEntity
8
0
100
AcDbPolyline
90
4
70
1
43
0.0
10
88.000001311302185
20
-78.450000000000003
10
89.5
20
-78.450000000000003
42
-0.99999999999999989
10
89.5
20
-81.549999999999997
10
88.000001311302185
20
-81.549999999999997
42
-0.99999999999999989
0
LWPOLYLINE
5
103
100
AcDbEntity
8
0
100
AcDbPolyline
90
4
70
1
43
0.0
10
78.449999999999989
20
-72.000001072883606
10
78.449999999999989
20
-70.5
42
-0.99999999999999989
10
81.549999999999997
20
-70.5
10
81.549999999999997
20
-72.000001072883606
42
-0.99999999999999989
0
LWPOLYLINE
5
104
100
AcDbEntity
8
0
100
AcDbPolyline
90
4
70
1
43
0.0
10
81.550000000000011
20
-88.000001311302185
10
81.550000000000011
20
-89.5
42
-0.99999999999999989
10
78.450000000000003
20
-89.5
10
78.449999999999989
20
-88.000001311302185
42
-0.99999999999999989
0
LWPOLYLINE
5
105
100
AcDbEntity
8
0
100
AcDbPolyline
90
4
70
1
43
0.0
10
70.500001231828435
20
-78.450000000000486
10
72.000002304712055
20
-78.450001192093382
42
-0.99999999999999989
10
71.999999841055157
20
-81.550001192092409
10
70.499998745074762
20
-81.5499999999995
42
-0.9999999925494194
0
CIRCLE
5
106
100
AcDbEntity
8
0
100
AcDbCircle
10
80
20
-80
30
0
40
3.0000000000000009
210
0
220
-0
230
1
0
CIRCLE
5
107
100
AcDbEntity
8
0
100
AcDbCircle
10
14.999999999999998
20
-15
30
0
40
1.5500000000000003
210
-0
220
0
230
1
0
CIRCLE
5
108
100
AcDbEntity
8
0
100
AcDbCircle
10
-14.999999999999998
20
-15
30
0
40
1.5500000000000003
210
0
220
0
230
1
0
CIRCLE
5
109
100
AcDbEntity
8
0
100
AcDbCircle
10
-80
20
-80
30
0
40
3.0000000000000009
210
0
220
-0
230
1
0
LWPOLYLINE
5
110
100
AcDbEntity
8
0
100
AcDbPolyline
90
4
70
1
43
0.0
10
-72.000002327808858
20
-78.450001192093396
10
-70.500001208731646
20
-78.450000000000472
42
-0.9999999925494194
10
-70.499998768171551
20
-81.549999999999514
10
-71.999999817958354
20
-81.550001192092395
42
-0.99999999999999989
0
LWPOLYLINE
5
111
100
AcDbEntity
8
0
100
AcDbPolyline
90
4
70
1
43
0.0
10
-81.550000000000011
20
-89.5
10
-81.550000000000011
20
-88.000001311302185
42
-0.99999999999999989
10
-78.449999999999989
20
-88.000001311302185
10
-78.449999999999989
20
-89.5
42
-0.99999999999999989
0
LWPOLYLINE
5
112
100
AcDbEntity
8
0
100
AcDbPolyline
90
4
70
1
43
0.0
10
-78.449999999999989
20
-70.5
10
-78.449999999999989
20
-72.00000107288362
42
-0.99999999999999989
10
-81.549999999999997
20
-72.000001072883606
10
-81.549999999999997
20
-70.5
42
-0.99999999999999989
0
LWPOLYLINE
5
113
100
AcDbEntity
8
0
100
AcDbPolyline
90
4
70
1
43
0.0
10
-89.5
20
-78.450000000000003
10
-88.000001311302185
20
-78.450000000000003
42
-0.99999999999999989
10
-88.000001311302185
20
-81.549999999999997
10
-89.5
20
-81.549999999999997
42
-0.99999999999999989
0
LWPOLYLINE
5
114
100
AcDbEntity
8
0
100
AcDbPolyline
90
4
70
1
43
0.0
10
11.864890360584806
20
31.026315789473678
42
0.29277002188456025
10
-11.864890360584816
20
31.026315789473678
42
0.74920612261889441
10
-10.246950765959607
20
25.499999999999989
10
10.246950765959607
20
25.499999999999989
42
0.74920612261889641
0
LWPOLYLINE
5
115
100
AcDbEntity
8
0
100
AcDbPolyline
90
4
70
1
43
0.0
10
-88.000001311302185
20
78.450000000000003
10
-89.5
20
78.450000000000003
42
-0.99999999999999989
10
-89.5
20
81.549999999999997
10
-88.000001311302185
20
81.549999999999997
42
-0.99999999999999989
0
LWPOLYLINE
5
116
100
AcDbEntity
8
0
100
AcDbPolyline
90
4
70
1
43
0.0
10
-78.449999999999989
20
72.000001072883606
10
-78.449999999999989
20
70.5
42
-0.99999999999999989
10
-81.549999999999997
20
70.5
10
-81.549999999999997
20
72.000001072883606
42
-0.99999999999999989
0
LWPOLYLINE
5
117
100
AcDbEntity
8
0
100
AcDbPolyline
90
4
70
1
43
0.0
10
-81.550000000000011
20
88.000001311302185
10
-81.550000000000011
20
89.5
42
-0.99999999999999989
10
-78.450000000000003
20
89.5
10
-78.449999999999989
20
88.000001311302185
42
-0.99999999999999989
0
LWPOLYLINE
5
118
100
AcDbEntity
8
0
100
AcDbPolyline
90
4
70
1
43
0.0
10
-70.500001231828435
20
78.450000000000486
10
-72.000002304712055
20
78.450001192093382
42
-0.99999999999999989
10
-71.999999841055157
20
81.550001192092409
10
-70.499998745074762
20
81.5499999999995
42
-0.9999999925494194
0
CIRCLE
5
119
100
AcDbEntity
8
0
100
AcDbCircle
10
-80
20
80
30
0
40
3.0000000000000009
210
-0
220
0
230
1
0
CIRCLE
5
120
100
AcDbEntity
8
0
100
AcDbCircle
10
-14.999999999999998
20
15
30
0
40
1.5500000000000003
210
0
220
-0
230
1
0
CIRCLE
5
121
100
AcDbEntity
8
0
100
AcDbCircle
10
14.999999999999998
20
15
30
0
40
1.5500000000000003
210
0
220
-0
230
1
0
LWPOLYLINE
5
122
100
AcDbEntity
8
0
100
AcDbPolyline
90
88
70
1
43
0.0
10
-25
20
14.02943725152285
10
-24.999999999999996
20
-14.02943725152285
42
-0.19891236737965801
10
-26.757359312880709
20
-18.272077938642134
10
-71.667864347160005
20
-63.182582972921438
42
-0.070421635121340767
10
-76.148279257797014
20
-66.551905108673878
42
-0.21693694066587643
10
-78.62716420843492
20
-66.742963682715072
42
0.35317403264948094
10
-83.382355709957153
20
-68.364661654135347
42
-0.14785581722704993
10
-84.694476459509502
20
-69.501814882032647
42
0.18450174755985507
10
-90.498185117967324
20
-75.305523540490469
42
-0.14785581722705063
10
-91.635338345864653
20
-76.617644290042804
42
0.55129082037292265
10
-91.635338345864668
20
-83.382355709957181
42
-0.14785581722705199
10
-90.498185117967324
20
-84.694476459509531
42
0.18450174755985357
10
-84.694476459509573
20
-90.49818511796731
42
-0.14785581722705268
10
-83.38235570995721
20
-91.635338345864668
42
0.55129082037292443
10
-76.617644290042804
20
-91.635338345864653
42
-0.14785581722705018
10
-75.305523540490469
20
-90.498185117967324
42
0.18450174755985399
10
-69.501814882032676
20
-84.694476459509559
42
-0.14785581722705221
10
-68.364661654135347
20
-83.382355709957196
42
0.35317403264948311
10
-66.742963682715072
20
-78.62716420843492
42
-0.21693694066587724
10
-66.551905108673907
20
-76.148279257796986
42
-0.070421635121341544
10
-63.182582972921431
20
-71.667864347159934
10
-23.165447185208706
20
-31.650728559447259
42
-0.39324983343453196
10
-16.35826106606331
20
-31.405218721150007
42
0.37258124529472375
10
16.358261066063314
20
-31.405218721150007
42
-0.3932498334345304
10
23.165447185208706
20
-31.650728559447256
10
63.182582972921431
20
-71.667864347159934
42
-0.070421635121339421
10
66.551905108673893
20
-76.148279257797
42
-0.21693694066587796
10
66.742963682715072
20
-78.627164208434905
42
0.35317403264948438
10
68.364661654135347
20
-83.382355709957196
42
-0.14785581722704916
10
69.50181488203269
20
-84.694476459509531
42
0.18450174755985407
10
75.305523540490455
20
-90.498185117967324
42
-0.14785581722705585
10
76.617644290042804
20
-91.635338345864653
42
0.55129082037292476
10
83.38235570995721
20
-91.635338345864668
42
-0.14785581722704905
10
84.694476459509573
20
-90.498185117967324
42
0.18450174755985374
10
90.498185117967324
20
-84.694476459509531
42
-0.14785581722704949
10
91.635338345864668
20
-83.382355709957181
42
0.55129082037292199
10
91.635338345864653
20
-76.617644290042819
42
-0.14785581722705041
10
90.498185117967324
20
-75.305523540490469
42
0.18450174755985532
10
84.694476459509502
20
-69.501814882032647
42
-0.14785581722706037
10
83.382355709957153
20
-68.364661654135347
42
0.35317403264948111
10
78.62716420843492
20
-66.742963682715072
42
-0.21693694066587796
10
76.148279257797014
20
-66.551905108673878
42
-0.070421635121338533
10
71.667864347160005
20
-63.182582972921431
10
26.757359312880709
20
-18.272077938642134
42
-0.19891236737965823
10
24.999999999999996
20
-14.02943725152285
10
24.999999999999996
20
14.02943725152285
42
-0.19891236737965801
10
26.757359312880709
20
18.272077938642134
10
71.667864347160005
20
63.182582972921438
42
-0.070421635121340767
10
76.148279257797014
20
66.551905108673878
42
-0.21693694066587643
10
78.62716420843492
20
66.742963682715072
42
0.35317403264948094
10
83.382355709957153
20
68.364661654135347
42
-0.14785581722704993
10
84.694476459509502
20
69.501814882032647
42
0.18450174755985507
10
90.498185117967324
20
75.305523540490469
42
-0.14785581722705063
10
91.635338345864653
20
76.617644290042804
42
0.55129082037292265
10
91.635338345864668
20
83.382355709957181
42
-0.14785581722705199
10
90.498185117967324
20
84.694476459509531
42
0.18450174755985357
10
84.694476459509573
20
90.49818511796731
42
-0.14785581722705268
10
83.38235570995721
20
91.635338345864668
42
0.55129082037292443
10
76.617644290042804
20
91.635338345864653
42
-0.14785581722705018
10
75.305523540490469
20
90.498185117967324
42
0.18450174755985399
10
69.501814882032676
20
84.694476459509559
42
-0.14785581722705221
10
68.364661654135347
20
83.382355709957196
42
0.35317403264948311
10
66.742963682715072
20
78.62716420843492
42
-0.21693694066587724
10
66.551905108673907
20
76.148279257796986
42
-0.070421635121341544
10
63.182582972921431
20
71.667864347159934
10
23.165447185208706
20
31.650728559447259
42
-0.39324983343453196
10
16.358261066063307
20
31.405218721150007
42
0.37258124529472342
10
-16.358261066063299
20
31.405218721150021
42
-0.39324983343453168
10
-23.165447185208706
20
31.650728559447256
10
-63.182582972921431
20
71.667864347159934
42
-0.070421635121339421
10
-66.551905108673893
20
76.148279257797
42
-0.21693694066587796
10
-66.742963682715072
20
78.627164208434905
42
0.35317403264948438
10
-68.364661654135347
20
83.382355709957196
42
-0.14785581722704916
10
-69.50181488203269
20
84.694476459509531
42
0.18450174755985407
10
-75.305523540490455
20
90.498185117967324
42
-0.14785581722705585
10
-76.617644290042804
20
91.635338345864653
42
0.55129082037292476
10
-83.38235570995721
20
91.635338345864668
42
-0.14785581722704905
10
-84.694476459509573
20
90.498185117967324
42
0.18450174755985374
10
-90.498185117967324
20
84.694476459509531
42
-0.14785581722704949
10
-91.635338345864668
20
83.382355709957181
42
0.55129082037292199
10
-91.635338345864653
20
76.617644290042819
42
-0.14785581722705041
10
-90.498185117967324
20
75.305523540490469
42
0.18450174755985532
10
-84.694476459509502
20
69.501814882032647
42
-0.14785581722706037
10
-83.382355709957153
20
68.364661654135347
42
0.35317403264948111
10
-78.62716420843492
20
66.742963682715072
42
-0.21693694066587796
10
-76.148279257797014
20
66.551905108673878
42
-0.070421635121338533
10
-71.667864347160005
20
63.182582972921431
10
-26.757359312880716
20
18.272077938642131
42
-0.19891236737965823
0
CIRCLE
5
123
100
AcDbEntity
8
0
100
AcDbCircle
10
80
20
80
30
0
40
3.0000000000000009
210
0
220
0
230
1
0
LWPOLYLINE
5
124
100
AcDbEntity
8
0
100
AcDbPolyline
90
4
70
1
43
0.0
10
72.000002327808858
20
78.450001192093396
10
70.500001208731646
20
78.450000000000472
42
-0.9999999925494194
10
70.499998768171551
20
81.549999999999514
10
71.999999817958354
20
81.550001192092395
42
-0.99999999999999989
0
LWPOLYLINE
5
125
100
AcDbEntity
8
0
100
AcDbPolyline
90
4
70
1
43
0.0
10
81.550000000000011
20
89.5
10
81.550000000000011
20
88.000001311302185
42
-0.99999999999999989
10
78.449999999999989
20
88.000001311302185
10
78.449999999999989
20
89.5
42
-0.99999999999999989
0
LWPOLYLINE
5
126
100
AcDbEntity
8
0
100
AcDbPolyline
90
4
70
1
43
0.0
10
78.449999999999989
20
70.5
10
78.449999999999989
20
72.00000107288362
42
-0.99999999999999989
10
81.549999999999997
20
72.000001072883606
10
81.549999999999997
20
70.5
42
-0.99999999999999989
0
LWPOLYLINE
5
127
100
AcDbEntity
8
0
100
AcDbPolyline
90
4
70
1
43
0.0
10
89.5
20
78.450000000000003
10
88.000001311302185
20
78.450000000000003
42
-0.99999999999999989
10
88.000001311302185
20
81.549999999999997
10
89.5
20
81.549999999999997
42
-0.99999999999999989
0
ENDSEC
0
SECTION
2
OBJECTS
0
DICTIONARY
5
C
100
AcDbDictionary
3
ACAD_GROUP
350
D
3
ACAD_MLINESTYLE
350
17
0
DICTIONARY
5
D
100
AcDbDictionary
0
DICTIONARY
5
1A
330
C
100
AcDbDictionary
0
DICTIONARY
5
17
100
AcDbDictionary
0
ENDSEC
0
EOF
